<svg xmlns="http://www.w3.org/2000/svg" width="222" height="74.001" viewBox="0 0 222 74.001">
  <g id="tod-logo" transform="translate(-277 -80)">
    <g id="Group" transform="translate(277 121.626)">
      <path id="Shape-2" d="M470.552,141.127a10.887,10.887,0,0,1-8.156-3.554,12.6,12.6,0,0,1,0-17.172,10.894,10.894,0,0,1,8.156-3.557,9.047,9.047,0,0,1,6.539,2.68,3.232,3.232,0,0,1,3-2.12h1.221c.193,0,.291.105.291.31v22.545c0,.205-.1.309-.291.309h-1.023a3.222,3.222,0,0,1-3.2-2.19A9.613,9.613,0,0,1,470.552,141.127Zm0-19.093a6.236,6.236,0,0,0-4.668,2.037,7.216,7.216,0,0,0,0,9.832,6.375,6.375,0,0,0,9.01.329c.115-.105.224-.216.329-.329a7.22,7.22,0,0,0,0-9.832,6.235,6.235,0,0,0-4.671-2.037Zm-25.158,19.093a10.892,10.892,0,0,1-8.156-3.554,12.6,12.6,0,0,1,0-17.172,11.505,11.505,0,0,1,3.724-2.668,11.02,11.02,0,0,1,4.428-.889,10.852,10.852,0,0,1,8.146,3.557,8.414,8.414,0,0,1,1.8,2.9,7.137,7.137,0,0,1,.479,3.3,4.564,4.564,0,0,1-1.5,3.041,4.653,4.653,0,0,1-3.138,1.066H438.992a6.925,6.925,0,0,0,1.727,3.188,6.377,6.377,0,0,0,9.01.329c.113-.107.224-.216.329-.329s.2-.228.327-.376a.27.27,0,0,1,.212-.107h5.091a.283.283,0,0,1,.251.136.289.289,0,0,1,.02.286,11.88,11.88,0,0,1-2.422,3.729,10.873,10.873,0,0,1-8.148,3.557ZM445.4,121.9a6.42,6.42,0,0,0-4.768,2.027,5.788,5.788,0,0,0-1.4,2.395h10.86a.732.732,0,0,0,.772-.494c.179-.5-.088-1.14-.792-1.916a6.4,6.4,0,0,0-4.672-2.008Zm-87.611,19.226a10.887,10.887,0,0,1-8.155-3.554,12.062,12.062,0,0,1-3.377-8.587,12.694,12.694,0,0,1,.845-4.663,12.136,12.136,0,0,1,2.538-3.922,11.117,11.117,0,0,1,15.711-.59q.306.283.59.59a8.432,8.432,0,0,1,1.792,2.9,7.139,7.139,0,0,1,.478,3.3,4.575,4.575,0,0,1-1.5,3.041,4.647,4.647,0,0,1-3.14,1.066H351.4a6.914,6.914,0,0,0,1.728,3.188,6.374,6.374,0,0,0,9.008.329c.115-.105.224-.216.331-.329s.211-.235.327-.376a.27.27,0,0,1,.21-.107h5.088a.3.3,0,0,1,.3.3.313.313,0,0,1-.027.125,11.92,11.92,0,0,1-2.421,3.731A10.874,10.874,0,0,1,357.793,141.127ZM357.8,121.9a6.418,6.418,0,0,0-4.758,2.027,5.78,5.78,0,0,0-1.4,2.395H362.5a.733.733,0,0,0,.77-.492c.178-.5-.089-1.14-.793-1.916a6.39,6.39,0,0,0-4.67-2.008Zm-48.615,19.226a10.887,10.887,0,0,1-8.156-3.554,12.6,12.6,0,0,1,0-17.172,10.894,10.894,0,0,1,8.156-3.557,9.049,9.049,0,0,1,6.543,2.68,3.233,3.233,0,0,1,3-2.12h1.218c.194,0,.293.105.293.31v22.545c0,.205-.1.309-.293.309h-1.023a3.221,3.221,0,0,1-3.2-2.19A9.605,9.605,0,0,1,309.186,141.127Zm-6.606-12.142h0a6.91,6.91,0,0,0,1.935,4.917,6.373,6.373,0,0,0,9.34,0,7.217,7.217,0,0,0,0-9.832,6.372,6.372,0,0,0-9.338,0,6.909,6.909,0,0,0-1.932,4.915Zm31.5,12.052a1.835,1.835,0,0,1-1.878-1.1l-9.22-22.1a.309.309,0,0,1,.023-.3.265.265,0,0,1,.228-.136H327.1a2.15,2.15,0,0,1,2.114,1.463l4.84,11.78,5.528-13.062a.267.267,0,0,1,.262-.182h5.075a.275.275,0,0,1,.239.138.309.309,0,0,1,.022.3l-9.221,22.1a1.831,1.831,0,0,1-1.878,1.1Z" transform="translate(-269.787 -108.758)" fill="#6f2c91"/>
      <path id="Shape-3" d="M371.51,141.128a10.889,10.889,0,0,1-8.152-3.555,12.588,12.588,0,0,1,0-17.172,11.492,11.492,0,0,1,3.724-2.667,11.468,11.468,0,0,1,8.855,0,11.527,11.527,0,0,1,3.729,2.667,12.6,12.6,0,0,1,0,17.172,11.523,11.523,0,0,1-3.729,2.666A10.991,10.991,0,0,1,371.51,141.128Zm0-19.095a6.228,6.228,0,0,0-4.67,2.036,7.218,7.218,0,0,0,0,9.833,6.375,6.375,0,0,0,9.338,0,7.218,7.218,0,0,0,0-9.833A6.23,6.23,0,0,0,371.51,122.033Z" transform="translate(-248.02 -108.758)" fill="#f15a22"/>
      <path id="Shape-4" d="M285.057,143.22h-.045a7.779,7.779,0,0,1-5.77-2.253,8.139,8.139,0,0,1-2.236-5.954V113.39c0-.206.1-.31.293-.31h1.162a3.276,3.276,0,0,1,2.457,1.078,3.649,3.649,0,0,1,1.023,2.595V119.5h5.425c.194,0,.293.105.293.31v3.053a1.829,1.829,0,0,1-.5,1.291,1.646,1.646,0,0,1-1.228.537h-3.99v10.325a3.061,3.061,0,0,0,.716,2.229,3.817,3.817,0,0,0,2.257.838c.422.034.757.049,1.066.049.363,0,.656-.02,1-.049l.1-.011c.1-.012.194-.02.293-.023a.379.379,0,0,1,.144.02c.158.072.158.2.158.317v.023l-.014,4.194a.277.277,0,0,1-.212.3A9.168,9.168,0,0,1,285.057,143.22Zm141.028,0a10.894,10.894,0,0,1-8.158-3.555,12.588,12.588,0,0,1,0-17.172,11.5,11.5,0,0,1,3.728-2.668,11,11,0,0,1,4.427-.889,9.455,9.455,0,0,1,6.119,2.132v-6.347a3.668,3.668,0,0,1,.224-1.5,3.917,3.917,0,0,1,1.612-1.938,3.36,3.36,0,0,1,1.692-.429h1.05a.376.376,0,0,1,.312.105c.058.061.051.3.051.309v31.087c0,.205-.1.308-.293.308h-1.163a3.252,3.252,0,0,1-3.066-1.932,9.45,9.45,0,0,1-6.536,2.489Zm0-19.093a6.236,6.236,0,0,0-4.67,2.035,7.22,7.22,0,0,0,0,9.835,6.378,6.378,0,0,0,9.013.328q.17-.158.328-.328a7.22,7.22,0,0,0,0-9.832,6.235,6.235,0,0,0-4.672-2.037Zm72.622,18.536H494.36c-.2,0-.294-.107-.294-.31v-27.63a3.625,3.625,0,0,1,.223-1.5,3.87,3.87,0,0,1,1.608-1.938,3.34,3.34,0,0,1,1.691-.429h1.05a.376.376,0,0,1,.312.105c.061.061.05.306.05.309v31.087a.31.31,0,0,1-.092.21.276.276,0,0,1-.206.1Zm-114.152,0H380.2c-.194,0-.293-.107-.293-.31V114.721a3.653,3.653,0,0,1,.224-1.5,3.872,3.872,0,0,1,1.611-1.936,3.346,3.346,0,0,1,1.692-.429h1.05a.376.376,0,0,1,.312.105c.058.059.051.3.051.309v31.087a.314.314,0,0,1-.092.21.279.279,0,0,1-.208.1Zm-87.8,0h-4.345a.269.269,0,0,1-.294-.309V127.145a8.131,8.131,0,0,1,2.238-5.957,7.771,7.771,0,0,1,5.768-2.251,9.086,9.086,0,0,1,2.431.318.272.272,0,0,1,.21.3v4.6a.247.247,0,0,1-.144.26.218.218,0,0,1-.105.023.552.552,0,0,1-.14-.022l-.074-.018a10.258,10.258,0,0,0-2.183-.269,3.172,3.172,0,0,0-2.352.915,3.239,3.239,0,0,0-.722,2.3v15.016a.267.267,0,0,1-.294.306Z" transform="translate(-277 -110.851)" fill="#6f2c91"/>
    </g>
    <path id="Shape-5" d="M372.558,124.4h0c-.2,0-.341-.212-.5-.43-.043-.059-.085-.121-.13-.178-.135-.174-4.334-6-5.1-7.069-.453-.634-.943-1.3-1.461-2a56.59,56.59,0,0,1-6.536-10.489c-2.454-5.407-3.213-13.85,2.715-19.854a16.006,16.006,0,0,1,22.016,0c5.919,6.006,5.16,14.449,2.709,19.853a56.486,56.486,0,0,1-6.543,10.492c-.518.7-1.009,1.357-1.461,1.994-.286.4-4.946,6.87-5.094,7.069-.044.057-.086.119-.127.177C372.9,124.193,372.758,124.4,372.558,124.4Zm-.069-39a10.415,10.415,0,0,0-7.174,3.012c-4.778,4.863-2.176,11.785-1.268,13.791a59.454,59.454,0,0,0,7.215,11.65l1.294,1.568,1.293-1.568a59.454,59.454,0,0,0,7.215-11.65c.911-2.008,3.512-8.927-1.268-13.791a10.408,10.408,0,0,0-7.174-3.01h-.131Z" transform="translate(27.944 0)" fill="#f15a22"/>
  </g>
</svg>
